<svg version="1.1" xmlns="http://www.w3.org/2000/svg" xmlns:xlink="http://www.w3.org/1999/xlink" width="1024px" height="1024px" viewBox="0,0,256,256"><g fill="#ffffff" fill-rule="nonzero" stroke="none" stroke-width="1" stroke-linecap="butt" stroke-linejoin="miter" stroke-miterlimit="10" stroke-dasharray="" stroke-dashoffset="0" font-family="none" font-weight="none" font-size="none" text-anchor="none" style="mix-blend-mode: normal"><g transform="translate(-0.19605,0) scale(0.25,0.25)"><path d="M420.8,903.2c-34.4,0 -68.8,-14.4 -97.6,-43.2l-160,-161.6c-26.4,-26.4 -40.8,-60.8 -40,-97.6c0,-36.8 15.2,-72 40.8,-96.8l373.6,-373.6c8,-8 16.8,-9.6 22.4,-9.6h310.4c17.6,0 32,14.4 32,32v311.2c0,5.6 -1.6,14.4 -9.6,22.4l-373.6,373.6c-29.6,28.8 -64,43.2 -98.4,43.2zM565.6,168.8l-368.8,368.8c-16.8,16 -26.4,39.2 -26.4,63.2c0,24 9.6,47.2 26.4,64l160.8,161.6c38.4,38.4 88,38.4 127.2,0l368.8,-368.8v-288.8z"></path><path d="M672.8,454.4c-57.6,0 -104,-46.4 -104,-104c0,-57.6 46.4,-104 104,-104c57.6,0 104,46.4 104,104c0,57.6 -46.4,104 -104,104zM672.8,294.4c-31.2,0 -56,24.8 -56,56c0,31.2 24.8,56 56,56c31.2,0 56,-24.8 56,-56c0,-31.2 -24.8,-56 -56,-56z"></path></g></g></svg>